REM DIRINDEX 1\2\6,1\2\7,1\2\8,1\2\9,1\3\10,1\3\11,1\4\12,1\4\13,1\4\14,1\5\15,1\5\16,1\5\17
REM DIRNAME folder01,folder02,folder03,folder04,folder05,folder06,folder07,folder08,folder09,folder10,folder11,folder12,folder13,folder14,folder15,folder16,folder17
TITLE ""
FILE "1900_2_sec15_1417_1432.mp3" MP3
  TRACK 01 AUDIO
    TITLE "0:"
    INDEX 01 00:00:00
  TRACK 02 AUDIO
    TITLE "13:cjc020_4978"
    INDEX 01 00:00:17
  TRACK 03 AUDIO
    TITLE "0:"
    INDEX 01 00:01:32
  TRACK 04 AUDIO
    TITLE "14:cjc020_4979"
    INDEX 01 00:01:34
  TRACK 05 AUDIO
    TITLE "0:"
    INDEX 01 00:02:61
  TRACK 06 AUDIO
    TITLE "13:cjc020_4980"
    INDEX 01 00:03:39
  TRACK 07 AUDIO
    TITLE "0:"
    INDEX 01 00:04:38
  TRACK 08 AUDIO
    TITLE "14:cjc020_4981"
    INDEX 01 00:04:40
  TRACK 09 AUDIO
    TITLE "0:"
    INDEX 01 00:05:38
  TRACK 10 AUDIO
    TITLE "13:cjc020_4982"
    INDEX 01 00:06:14
  TRACK 11 AUDIO
    TITLE "0:"
    INDEX 01 00:07:23
  TRACK 12 AUDIO
    TITLE "14:cjc020_4983"
    INDEX 01 00:07:25
  TRACK 13 AUDIO
    TITLE "0:"
    INDEX 01 00:09:61
  TRACK 14 AUDIO
    TITLE "13:cjc020_4984"
    INDEX 01 00:10:41
  TRACK 15 AUDIO
    TITLE "0:"
    INDEX 01 00:11:40
  TRACK 16 AUDIO
    TITLE "14:cjc020_4985"
    INDEX 01 00:11:44
  TRACK 17 AUDIO
    TITLE "0:"
    INDEX 01 00:12:52
  TRACK 18 AUDIO
    TITLE "13:cjc020_4986"
    INDEX 01 00:13:32
  TRACK 19 AUDIO
    TITLE "0:"
    INDEX 01 00:14:47
  TRACK 20 AUDIO
    TITLE "14:cjc020_4987"
    INDEX 01 00:14:49
  TRACK 21 AUDIO
    TITLE "0:"
    INDEX 01 00:19:50
  TRACK 22 AUDIO
    TITLE "13:cjc020_4988"
    INDEX 01 00:20:30
  TRACK 23 AUDIO
    TITLE "0:"
    INDEX 01 00:21:35
  TRACK 24 AUDIO
    TITLE "14:cjc020_4989"
    INDEX 01 00:21:39
  TRACK 25 AUDIO
    TITLE "0:"
    INDEX 01 00:23:71
  TRACK 26 AUDIO
    TITLE "13:cjc020_4990"
    INDEX 01 00:24:51
  TRACK 27 AUDIO
    TITLE "0:"
    INDEX 01 00:25:68
  TRACK 28 AUDIO
    TITLE "14:cjc020_4991"
    INDEX 01 00:25:72
  TRACK 29 AUDIO
    TITLE "0:"
    INDEX 01 00:29:17
  TRACK 30 AUDIO
    TITLE "13:cjc020_4992"
    INDEX 01 00:29:72
  TRACK 31 AUDIO
    TITLE "0:"
    INDEX 01 00:31:04
  TRACK 32 AUDIO
    TITLE "14:cjc020_4993"
    INDEX 01 00:31:10
  TRACK 33 AUDIO
    TITLE "0:"
    INDEX 01 00:35:25
  TRACK 34 AUDIO
    TITLE "13:cjc020_4994"
    INDEX 01 00:36:05
  TRACK 35 AUDIO
    TITLE "0:"
    INDEX 01 00:37:14
  TRACK 36 AUDIO
    TITLE "14:cjc020_4995"
    INDEX 01 00:37:16
  TRACK 37 AUDIO
    TITLE "0:"
    INDEX 01 00:41:22
  TRACK 38 AUDIO
    TITLE "13:cjc020_4996"
    INDEX 01 00:42:00
  TRACK 39 AUDIO
    TITLE "0:"
    INDEX 01 00:43:19
  TRACK 40 AUDIO
    TITLE "14:cjc020_4997"
    INDEX 01 00:43:21
  TRACK 41 AUDIO
    TITLE "0:"
    INDEX 01 00:45:67
  TRACK 42 AUDIO
    TITLE "13:cjc020_4998"
    INDEX 01 00:46:51
  TRACK 43 AUDIO
    TITLE "0:"
    INDEX 01 00:47:44
  TRACK 44 AUDIO
    TITLE "14:cjc020_4999"
    INDEX 01 00:47:48
  TRACK 45 AUDIO
    TITLE "0:"
    INDEX 01 00:49:49
  TRACK 46 AUDIO
    TITLE "13:cjc020_5000"
    INDEX 01 00:50:27
  TRACK 47 AUDIO
    TITLE "0:"
    INDEX 01 00:51:32
  TRACK 48 AUDIO
    TITLE "14:cjc020_5001"
    INDEX 01 00:51:34
  TRACK 49 AUDIO
    TITLE "0:"
    INDEX 01 00:55:53
  TRACK 50 AUDIO
    TITLE "13:cjc020_5002"
    INDEX 01 00:56:33
  TRACK 51 AUDIO
    TITLE "0:"
    INDEX 01 00:57:41
  TRACK 52 AUDIO
    TITLE "14:cjc020_5003"
    INDEX 01 00:57:43
  TRACK 53 AUDIO
    TITLE "0:"
    INDEX 01 00:59:67
  TRACK 54 AUDIO
    TITLE "13:cjc020_5004"
    INDEX 01 01:00:49
  TRACK 55 AUDIO
    TITLE "0:"
    INDEX 01 01:01:52
  TRACK 56 AUDIO
    TITLE "14:cjc020_5005"
    INDEX 01 01:01:56
  TRACK 57 AUDIO
    TITLE "0:"
    INDEX 01 01:04:29
  TRACK 58 AUDIO
    TITLE "13:cjc020_5006"
    INDEX 01 01:05:07
  TRACK 59 AUDIO
    TITLE "0:"
    INDEX 01 01:06:08
  TRACK 60 AUDIO
    TITLE "14:cjc020_5007"
    INDEX 01 01:06:12
  TRACK 61 AUDIO
    TITLE "0:"
    INDEX 01 01:08:17
  TRACK 62 AUDIO
    TITLE "13:cjc020_5008"
    INDEX 01 01:08:72
  TRACK 63 AUDIO
    TITLE "0:"
    INDEX 01 01:09:67
  TRACK 64 AUDIO
    TITLE "14:cjc020_5009"
    INDEX 01 01:09:69
  TRACK 65 AUDIO
    TITLE "0:"
    INDEX 01 01:11:58
